<?xml version="1.0" encoding="utf-8"?>
<!-- Generator: Adobe Illustrator 23.0.1, SVG Export Plug-In . SVG Version: 6.00 Build 0)  -->
<svg version="1.1" id="Layer_1" xmlns="http://www.w3.org/2000/svg" xmlns:xlink="http://www.w3.org/1999/xlink" x="0px" y="0px"
	 viewBox="0 0 262.2 51.8" style="enable-background:new 0 0 262.2 51.8;" xml:space="preserve">
<style type="text/css">
	.st0{fill-rule:evenodd;clip-rule:evenodd;fill:#FF0000;}
	.st1{fill-rule:evenodd;clip-rule:evenodd;fill:#FFFFFF;}
	.st2{fill:#FF0000;}
	.st3{fill:#FFFFFF;}
	.st4{fill:none;stroke:#FFFFFF;stroke-width:1.000000e-02;stroke-miterlimit:2.61;}
</style>
<title>Asset 1</title>
<g id="Layer_1-2">
	<g id="Layer_1-3">
		<g id="_1459563877488">
			<polygon class="st0" points="27.6,0 0,0 0,5.2 11.2,5.2 11.2,30.6 16.4,30.6 16.4,5.2 27.6,5.2 			"/>
			<polygon class="st1" points="63,0 30.3,0 30.3,5.2 57.7,5.2 57.7,46.5 16.5,46.5 16.5,33.2 11.3,33.2 11.3,51.7 11.3,51.7 
				11.3,51.8 62.8,51.8 62.8,51.5 62.9,51.5 62.9,5.2 63,5.2 			"/>
			<path class="st0" d="M41.3,33.6c3.8,0.6,6.4,1.9,6.4,3.4c0,2.1-5.1,3.8-11.3,3.8S25.1,39.1,25.1,37c0-1.5,2.7-2.8,6.5-3.4
				l0.6,0.8c-3.6,0.4-6.1,1.5-6.1,2.6c0,1.6,4.5,2.9,10.1,2.9s10.2-1.3,10.2-2.9c0-1.2-2.4-2.1-5.8-2.6L41.3,33.6L41.3,33.6z"/>
			<path class="st2" d="M36.5,12.1c-5.4,0-9.7,4.4-9.7,9.7c0,0,0,0,0,0c0,2.1,0.7,4.2,1.9,5.8l7.2,9.7H36c0.2,0.3,0.7,0.4,1,0.1
				c0,0,0.1-0.1,0.1-0.1c2.1-2.8,5.9-7.9,7.3-9.9l0,0l0,0c1.2-1.6,1.8-3.6,1.8-5.6C46.3,16.4,41.9,12.1,36.5,12.1
				C36.5,12.1,36.5,12.1,36.5,12.1z M36.5,27.1c-2.9,0-5.3-2.4-5.3-5.3s2.4-5.3,5.3-5.3s5.3,2.4,5.3,5.3l0,0
				C41.7,24.7,39.4,27,36.5,27.1L36.5,27.1z"/>
			<path class="st0" d="M246.9,42.4l-1.4-2.2c0,0,0.8-0.1,1.2-0.2c0.3-0.1,0.7,0,1,0.2c1,0.6,2,1.2,2.9,1.9L246.9,42.4L246.9,42.4z
				 M235.7,41.1c0.9,1.2,1.7,2.3,2.6,3.7c0.3,0.3,0.6,0.5,1,0.6c0.7,0.2,3.4,0.3,3.9,0.3s3.6,0.1,3.6,0.1s-1.1,3.3-1.1,3.3
				s0.6,0.1,1.1,0.1c0.3,0.1,0.7,0,1-0.2c0.3-0.2,3.9-3.2,3.9-3.2s4.2-0.1,5.3-0.2c0.6,0,2.2-0.1,3.4-0.2s1.7-0.4,1.7-0.7
				c0.1-0.5-0.9-1-1.3-1.1c-0.5-0.7-1.2-1.1-2.1-1.2c-1.2-0.1-11.5,0.5-12.4,0.5s-6,0.2-6.6-0.1c-0.6-0.4-1.1-0.9-1.5-1.4
				c-0.2-0.3-0.5-0.4-0.8-0.4C236.8,41,235.8,41,235.7,41.1L235.7,41.1z"/>
			<path class="st3" d="M91.6,7.9v3h-7v20.8h-3.2V10.9h-7v-3L91.6,7.9z M95,17.5c0.9-2.1,3-3.3,5.3-3.2v3.1
				c-1.3-0.1-2.7,0.3-3.7,1.1c-1.1,1-1.7,2.5-1.6,4v9h-3v-17h3V17.5L95,17.5z M104.7,11.6c-0.5,0-1-0.2-1.4-0.6
				c-0.4-0.4-0.6-0.9-0.6-1.4c0-0.5,0.2-1,0.6-1.4c0.8-0.8,2-0.8,2.8,0c0.4,0.4,0.6,0.9,0.6,1.4C106.7,10.7,105.8,11.6,104.7,11.6
				L104.7,11.6z M103.2,31.7v-17h3v17H103.2z M120.1,14.2c2.3,0,4.5,0.9,6.1,2.6c1.7,1.7,2.6,4,2.5,6.3c0.1,2.4-0.9,4.7-2.5,6.3
				c-1.6,1.7-3.8,2.6-6.1,2.6c-2.6,0.1-5-1.2-6.4-3.4v9.7h-3V14.7h3v2.9C115,15.4,117.5,14.1,120.1,14.2L120.1,14.2z M119.7,29.2
				c1.6,0,3.2-0.6,4.3-1.7c1.1-1.1,1.8-2.7,1.7-4.3c0-1.6-0.6-3.2-1.7-4.3c-2.4-2.3-6.2-2.3-8.6,0c-1.1,1.2-1.8,2.7-1.7,4.3
				c0,1.6,0.6,3.2,1.7,4.3C116.5,28.7,118.1,29.3,119.7,29.2L119.7,29.2z M185.1,14.6h3v17h-3v-2.4c-1.2,1.9-3.3,3-5.5,2.9
				c-1.8,0.1-3.5-0.6-4.8-1.9c-1.3-1.4-1.9-3.2-1.8-5.1V14.7h2.9v10.3c-0.1,1.2,0.3,2.3,1.1,3.2c0.8,0.8,1.9,1.2,3.1,1.1
				c1.3,0.1,2.6-0.4,3.6-1.4c1-1.2,1.5-2.7,1.4-4.2L185.1,14.6L185.1,14.6z M206.6,14.6h3v23.8h-3v-9.7c-1.4,2.2-3.8,3.5-6.4,3.4
				c-2.3,0-4.5-0.9-6.1-2.6c-1.7-1.7-2.6-4-2.5-6.3c0-2.4,0.9-4.6,2.5-6.3c1.6-1.7,3.8-2.6,6.1-2.6c2.6-0.1,5,1.2,6.4,3.4V14.6z
				 M200.5,29.2c1.6,0,3.2-0.6,4.3-1.8c1.2-1.1,1.8-2.7,1.7-4.3c0-1.6-0.6-3.2-1.7-4.3c-2.4-2.3-6.2-2.3-8.6,0
				c-1.1,1.1-1.8,2.7-1.7,4.3c0,1.6,0.6,3.2,1.7,4.3C197.4,28.7,198.9,29.3,200.5,29.2L200.5,29.2z M225.8,14.7h3v17h-3v-2.5
				c-1.2,1.9-3.3,3-5.5,2.9c-1.8,0.1-3.5-0.6-4.8-1.9c-1.3-1.4-1.9-3.2-1.8-5.1V14.7h3v10.3c-0.1,1.2,0.3,2.3,1.1,3.2
				c0.8,0.8,2,1.2,3.1,1.1c1.3,0.1,2.6-0.4,3.6-1.4c1-1.2,1.5-2.7,1.4-4.2L225.8,14.7L225.8,14.7z M235.3,24.5
				c0.2,1.4,1,2.7,2.1,3.5c1.2,0.9,2.6,1.3,4.1,1.3c2,0.1,3.8-0.8,4.9-2.5l2.5,1.4c-1.6,2.5-4.5,4-7.5,3.8c-2.4,0.1-4.8-0.8-6.6-2.5
				c-1.7-1.7-2.6-4-2.5-6.4c-0.1-2.4,0.8-4.7,2.5-6.4c1.7-1.7,4-2.6,6.4-2.6c2.3-0.1,4.6,0.9,6.1,2.6c1.6,1.7,2.4,4,2.4,6.3
				c0,0.4,0,0.9-0.1,1.3L235.3,24.5z M241.2,17c-2.9-0.1-5.5,2-5.9,4.9h11.4c-0.2-1.4-0.8-2.7-1.9-3.7C243.8,17.4,242.5,17,241.2,17
				z M261.8,17.5h-4.5v9.2c-0.1,0.6,0.1,1.3,0.5,1.8c0.4,0.4,1,0.6,1.5,0.5c0.7,0,1.5,0,2.5,0v2.6c-2.6,0.3-4.5,0.1-5.7-0.6
				s-1.8-2.2-1.8-4.3v-9.2H251v-2.9h3.4v-3.9l3-0.9v4.8h4.5L261.8,17.5L261.8,17.5z M146.2,19.3c1.1,0.5,2,1.3,2.6,2.2
				c0.7,1,1,2.2,1,3.4c0,1.8-0.7,3.5-2,4.8c-1.3,1.3-3.1,2-4.9,1.9h-10.3V7.9h9.5c1.8,0,3.5,0.6,4.7,1.9c1.3,1.2,2,2.9,1.9,4.6
				C148.8,16.4,147.8,18.2,146.2,19.3z M142.1,10.8h-6.4v7.3h6.4c1,0,1.9-0.4,2.5-1c0.7-0.7,1-1.6,1-2.6c0-1-0.3-1.9-1-2.6
				C143.9,11.2,143,10.8,142.1,10.8z M142.8,28.7c1,0,2-0.4,2.7-1.1c0.7-0.7,1.1-1.7,1.1-2.8c0-1-0.4-2-1.1-2.7
				c-0.7-0.7-1.7-1.1-2.7-1.1h-7.1v7.7L142.8,28.7z"/>
			<path class="st0" d="M157.6,6.3h6.7c1.5,0,2.8,1.3,2.8,2.8v8h-1.4V9.3c0-0.9-0.7-1.6-1.6-1.6h-6.4c-0.9,0-1.6,0.7-1.6,1.6v7.9
				h-1.4v-8C154.8,7.6,156.1,6.4,157.6,6.3L157.6,6.3z"/>
			<circle class="st2" cx="156.3" cy="32.5" r="1.3"/>
			<circle class="st2" cx="165.6" cy="32.5" r="1.3"/>
			<path class="st2" d="M167.4,29.5c-3.6,3.5-9.2,3.5-12.8,0c-1.7-1.7-2.7-4-2.6-6.4c-0.1-4.9,3.9-8.9,8.8-9c0.1,0,0.2,0,0.2,0
				c4.9,0,9,3.9,9,8.8c0,0.1,0,0.1,0,0.2C170.1,25.6,169.1,27.9,167.4,29.5z M157.7,26.5c1.8,1.8,4.7,1.8,6.6,0
				c0.9-0.9,1.4-2.1,1.3-3.4c0-1.3-0.4-2.5-1.3-3.4c-1.8-1.8-4.7-1.8-6.6,0c-0.9,0.9-1.3,2.1-1.3,3.4
				C156.4,24.4,156.9,25.6,157.7,26.5L157.7,26.5z"/>
			<line class="st4" x1="161.9" y1="44.1" x2="164.1" y2="44.1"/>
			<line class="st4" x1="166" y1="44.1" x2="235.1" y2="44.1"/>
			<path class="st3" d="M80.9,46.6h2.9v-0.5h-2.2v-1.9h2v-0.5h-2V42h2.1v-0.5h-2.8V46.6z M86.3,46.6H87l1.8-5.1h-0.7L87.3,44
				c-0.2,0.6-0.4,1.3-0.6,1.9l0,0c-0.1-0.6-0.3-1.2-0.6-1.9l-0.8-2.5h-0.7L86.3,46.6z M89.8,46.6h2.9v-0.5h-2.2v-1.9h2v-0.5h-2V42
				h2.1v-0.5h-2.8L89.8,46.6L89.8,46.6z M94,46.6h0.7v-2.2h0.6c0.6,0,0.9,0.3,1,1c0.1,0.4,0.2,0.8,0.3,1.2h0.7
				c-0.2-0.5-0.3-0.9-0.4-1.4c-0.1-0.4-0.3-0.8-0.8-1l0,0c0.6-0.2,1-0.7,1-1.3c0-0.4-0.1-0.7-0.4-1c-0.4-0.3-1-0.5-1.5-0.4
				c-0.4,0-0.9,0-1.3,0.1L94,46.6L94,46.6z M94.7,43.9V42c0.2,0,0.4-0.1,0.7-0.1c0.7,0,1.2,0.3,1.2,1s-0.4,1-1.2,1L94.7,43.9z
				 M99.7,46.6h0.7v-2.2l1.7-3h-0.8l-0.7,1.4c-0.2,0.4-0.4,0.7-0.5,1.1l0,0c-0.2-0.4-0.3-0.7-0.5-1.1l-0.7-1.4H98l1.6,3L99.7,46.6
				L99.7,46.6z M105.8,46.6h0.7V42h1.5v-0.6h-3.8V42h1.6L105.8,46.6L105.8,46.6z M109,46.6h0.7v-2.2h0.6c0.6,0,0.9,0.3,1,1
				c0.1,0.4,0.2,0.8,0.3,1.2h0.7c-0.2-0.5-0.3-0.9-0.4-1.4c-0.1-0.4-0.4-0.8-0.8-1l0,0c0.6-0.2,1-0.7,1-1.3c0-0.4-0.1-0.7-0.4-1
				c-0.4-0.3-1-0.5-1.5-0.4c-0.4,0-0.9,0-1.3,0.1C109,41.6,109,46.6,109,46.6z M109.7,43.9V42c0.2,0,0.4-0.1,0.7-0.1
				c0.7,0,1.2,0.3,1.2,1s-0.4,1-1.2,1L109.7,43.9z M113.6,46.6h0.7v-5.1h-0.7V46.6z M115.8,46.6h0.7v-2c0.2,0,0.4,0,0.6,0
				c0.6,0,1.1-0.2,1.6-0.6c0.3-0.3,0.4-0.7,0.4-1.1c0-0.4-0.2-0.8-0.4-1.1c-0.4-0.3-0.9-0.5-1.4-0.4c-0.4,0-0.9,0-1.3,0.1
				C115.8,41.5,115.8,46.6,115.8,46.6z M116.5,44v-2c0.2,0,0.4-0.1,0.6,0c0.7,0,1.2,0.3,1.2,1s-0.5,1.1-1.3,1.1
				C116.9,44.1,116.7,44.1,116.5,44L116.5,44z M122.4,46.6h0.6v-5.1h-0.7L122.4,46.6z M124.4,46.3c0.4,0.2,0.9,0.3,1.3,0.3
				c1.2,0,1.8-0.7,1.8-1.5s-0.4-1.2-1.3-1.5c-0.7-0.3-1-0.5-1-1s0.3-0.8,1-0.8c0.3,0,0.7,0.1,1,0.2l0.2-0.5
				c-0.4-0.2-0.7-0.3-1.1-0.2c-0.8-0.1-1.6,0.5-1.7,1.3c0,0,0,0.1,0,0.1c0,0.7,0.5,1.2,1.4,1.5s1,0.5,1,1s-0.4,0.9-1.1,0.9
				c-0.4,0-0.8-0.1-1.2-0.3L124.4,46.3z M130.6,46.3c0.4,0.2,0.9,0.3,1.3,0.3c1.2,0,1.8-0.7,1.8-1.5s-0.4-1.2-1.3-1.5
				c-0.7-0.3-1-0.5-1-1s0.3-0.8,1-0.8c0.3,0,0.7,0.1,1,0.2l0.2-0.5c-0.4-0.2-0.7-0.3-1.1-0.2c-0.8-0.1-1.6,0.5-1.7,1.3
				c0,0,0,0.1,0,0.1c0,0.7,0.5,1.2,1.4,1.5c0.7,0.3,1,0.5,1,1s-0.4,0.9-1.1,0.9c-0.4,0-0.8-0.1-1.2-0.3L130.6,46.3z M135.1,46.6h0.7
				v-2c0.2,0,0.4,0,0.6,0c0.6,0,1.1-0.2,1.6-0.6c0.3-0.3,0.4-0.7,0.4-1.1c0-0.4-0.2-0.8-0.4-1.1c-0.4-0.3-0.9-0.5-1.4-0.4
				c-0.4,0-0.9,0-1.3,0.1V46.6z M135.7,44v-2c0.2,0,0.4-0.1,0.6,0c0.7,0,1.2,0.3,1.2,1s-0.5,1.1-1.3,1.1
				C136.1,44.1,135.9,44.1,135.7,44L135.7,44z M139.6,46.6h2.9v-0.5h-2.2v-1.9h2v-0.5h-2V42h2.1v-0.5h-2.8V46.6z M143.5,44.1
				c-0.1,1.3,0.9,2.5,2.2,2.6c0.1,0,0.2,0,0.3,0c0.5,0,0.9-0.1,1.4-0.3l-0.1-0.5c-0.3,0.1-0.7,0.2-1.1,0.2c-1,0.1-1.9-0.7-2-1.7
				c0-0.1,0-0.2,0-0.3c-0.1-1,0.6-2,1.7-2.1c0.1,0,0.2,0,0.3,0c0.3,0,0.7,0.1,1,0.2l0.2-0.5c-0.4-0.2-0.8-0.2-1.2-0.2
				c-1.4-0.1-2.6,1-2.7,2.4C143.4,43.9,143.4,44,143.5,44.1L143.5,44.1z M148.6,46.6h0.7v-5.1h-0.7V46.6z M150.5,46.6h0.7l0.5-1.6
				h1.8l0.6,1.6h0.7l-1.8-5.1h-0.8L150.5,46.6L150.5,46.6z M151.9,44.5l0.5-1.5c0.1-0.3,0.2-0.6,0.3-0.9l0,0
				c0.1,0.3,0.2,0.6,0.3,0.9l0.5,1.5L151.9,44.5z M156,46.6h2.9V46h-2.2v-4.6H156V46.6z"/>
		</g>
	</g>
</g>
</svg>
