<svg xmlns="http://www.w3.org/2000/svg" width="260.382" height="51.409" viewBox="0 0 260.382 51.409">
  <g id="Group_3" data-name="Group 3" transform="translate(-431 -245)">
    <g id="Group_2" data-name="Group 2">
      <g id="Group_1" data-name="Group 1" transform="translate(431 245)">
        <path id="Path_1" data-name="Path 1" d="M27.427,0H0V5.184H11.122V30.416h5.184V5.184H27.427Z" fill="red" fill-rule="evenodd"/>
        <path id="Path_2" data-name="Path 2" d="M62.59,0H30.147V5.184H57.4V46.225H16.444v-13.3H11.26V51.32h.02v.089H62.461v-.228h.119v-46h.01Z" transform="translate(-0.079)" fill-rule="evenodd"/>
        <path id="Path_3" data-name="Path 3" d="M41.227,33.58c3.754.606,6.345,1.887,6.345,3.376,0,2.075-5.025,3.754-11.221,3.754S25.13,39.032,25.13,36.976c0-1.5,2.661-2.8,6.494-3.4l.606.814c-3.565.437-6.057,1.45-6.057,2.622,0,1.569,4.508,2.85,10.079,2.85s10.089-1.3,10.089-2.89c0-1.142-2.344-2.125-5.74-2.582l.626-.834Z" transform="translate(-0.175 -0.234)" fill="red" fill-rule="evenodd"/>
        <path id="Path_4" data-name="Path 4" d="M36.462,12.06a9.662,9.662,0,0,0-7.736,15.452l7.14,9.622h.07a.715.715,0,0,0,1.122,0c2.056-2.741,5.829-7.865,7.279-9.8h0a9.563,9.563,0,0,0,1.787-5.591,9.662,9.662,0,0,0-9.662-9.682Z" transform="translate(-0.187 -0.084)" fill="red"/>
        <path id="Path_5" data-name="Path 5" d="M246.822,42.383l-1.43-2.165s.824-.139,1.2-.179a1.341,1.341,0,0,1,.993.218,21.766,21.766,0,0,1,2.91,1.926l-3.664.2ZM235.73,41.043c.864,1.192,1.678,2.324,2.6,3.634a1.708,1.708,0,0,0,.993.6c.705.209,3.386.288,3.843.348s3.535.089,3.535.089-1.122,3.277-1.092,3.287.606.089,1.082.119a1.47,1.47,0,0,0,.993-.179c.258-.179,3.913-3.188,3.913-3.188s4.151-.089,5.283-.149c.636,0,2.2-.079,3.416-.169s1.7-.407,1.728-.7c.07-.516-.894-.993-1.331-1.1a2.979,2.979,0,0,0-2.046-1.2c-1.231-.119-11.38.457-12.363.5s-5.958.189-6.554-.1a8.361,8.361,0,0,1-1.529-1.37,1.1,1.1,0,0,0-.824-.437H235.76Z" transform="translate(-1.647 -0.279)" fill="red" fill-rule="evenodd"/>
        <path id="Path_6" data-name="Path 6" d="M91.45,7.868v2.979H84.5V31.5H81.361V10.837H74.41V7.858Zm3.406,9.583a5.323,5.323,0,0,1,5.273-3.138v3.078a5.3,5.3,0,0,0-3.714,1.142,4.846,4.846,0,0,0-1.559,4.022v8.937H91.877V14.611h2.979v2.83Zm9.622-5.909a1.9,1.9,0,0,1-1.41-.576,1.857,1.857,0,0,1-.576-1.38,1.976,1.976,0,1,1,1.966,1.986ZM103,31.5V14.621h2.979V31.5Zm16.752-17.318a8.053,8.053,0,0,1,6.038,2.582,8.709,8.709,0,0,1,2.5,6.3,8.709,8.709,0,0,1-2.5,6.3,8.053,8.053,0,0,1-6.038,2.582,7.16,7.16,0,0,1-6.385-3.337v9.652h-2.979V14.621h2.979v2.9a7.16,7.16,0,0,1,6.425-3.337Zm-.377,14.9a5.769,5.769,0,0,0,4.28-1.718,5.879,5.879,0,0,0,1.718-4.3,5.958,5.958,0,0,0-1.718-4.31,6.127,6.127,0,0,0-8.55,0,5.958,5.958,0,0,0-1.718,4.31,5.879,5.879,0,0,0,1.718,4.3,5.8,5.8,0,0,0,4.31,1.748Zm64.9-14.488h2.979V31.472h-2.979v-2.4a5.958,5.958,0,0,1-5.472,2.87,6.3,6.3,0,0,1-4.757-1.867,7.07,7.07,0,0,1-1.787-5.084V14.621h2.929v10.2a4.35,4.35,0,0,0,1.122,3.188,4.111,4.111,0,0,0,3.068,1.132,4.747,4.747,0,0,0,3.545-1.37,5.74,5.74,0,0,0,1.351-4.2V14.631Zm21.38,0h2.979V38.225h-2.979V28.6a7.17,7.17,0,0,1-6.385,3.337,8.093,8.093,0,0,1-6.048-2.582,8.739,8.739,0,0,1-2.493-6.3,8.739,8.739,0,0,1,2.493-6.3,8.093,8.093,0,0,1,6.048-2.582,7.18,7.18,0,0,1,6.385,3.337Zm-6.008,14.488a5.769,5.769,0,0,0,4.28-1.748,5.849,5.849,0,0,0,1.728-4.3,5.889,5.889,0,0,0-1.728-4.31,6.117,6.117,0,0,0-8.54,0,5.879,5.879,0,0,0-1.718,4.31,5.839,5.839,0,0,0,1.718,4.3,5.75,5.75,0,0,0,4.3,1.778Zm25.094-14.458h2.979V31.5h-2.979V29.069a5.958,5.958,0,0,1-5.472,2.87,6.316,6.316,0,0,1-4.767-1.867,7.07,7.07,0,0,1-1.787-5.084V14.621H215.7v10.2a4.339,4.339,0,0,0,1.112,3.188,4.121,4.121,0,0,0,3.078,1.132,4.767,4.767,0,0,0,3.545-1.37,5.779,5.779,0,0,0,1.351-4.2V14.631Zm9.454,9.791a5.551,5.551,0,0,0,2.075,3.515,6.524,6.524,0,0,0,4.042,1.241,5.263,5.263,0,0,0,4.856-2.463l2.5,1.42a8.262,8.262,0,0,1-7.428,3.813,8.828,8.828,0,0,1-6.534-2.512,8.639,8.639,0,0,1-2.522-6.365,8.719,8.719,0,0,1,2.473-6.345,8.49,8.49,0,0,1,6.375-2.532A7.766,7.766,0,0,1,246.1,16.8a9.136,9.136,0,0,1,2.344,6.3,8.629,8.629,0,0,1-.1,1.321Zm5.839-7.477a5.621,5.621,0,0,0-5.839,4.9h11.281a5.66,5.66,0,0,0-1.9-3.644,5.412,5.412,0,0,0-3.545-1.251Zm20.466.506h-4.488V26.6a2.592,2.592,0,0,0,.487,1.778,1.986,1.986,0,0,0,1.509.536c.675,0,1.5,0,2.492-.05v2.632c-2.562.338-4.449.129-5.64-.626s-1.787-2.175-1.787-4.27V17.451h-3.307v-2.83h3.346V10.768l2.979-.874v4.727h4.488v2.83ZM145.66,19.248a6.385,6.385,0,0,1,2.582,2.224,5.958,5.958,0,0,1,.993,3.347,6.345,6.345,0,0,1-1.986,4.757,6.753,6.753,0,0,1-4.866,1.926H132.145V7.868H141.6a6.494,6.494,0,0,1,4.7,1.857,6.127,6.127,0,0,1,1.926,4.588,5.7,5.7,0,0,1-2.562,4.935ZM141.6,10.8h-6.306v7.229H141.6a3.347,3.347,0,0,0,2.5-1.043,3.555,3.555,0,0,0,.993-2.572,3.5,3.5,0,0,0-.993-2.542A3.307,3.307,0,0,0,141.6,10.8Zm.745,17.765a3.565,3.565,0,0,0,2.671-1.112A3.813,3.813,0,0,0,146.1,24.72a3.674,3.674,0,0,0-1.1-2.7,3.565,3.565,0,0,0-2.651-1.112h-7.051v7.666Z" transform="translate(-0.522 -0.053)"/>
        <path id="Path_7" data-name="Path 7" d="M157.62,6.34h6.643a2.8,2.8,0,0,1,2.79,2.79v7.944h-1.36V9.23a1.569,1.569,0,0,0-1.559-1.559h-6.385A1.569,1.569,0,0,0,156.19,9.23V17.1h-1.36V9.16a2.81,2.81,0,0,1,2.79-2.79Z" transform="translate(-1.082 -0.044)" fill="red" fill-rule="evenodd"/>
        <circle id="Ellipse_1" data-name="Ellipse 1" cx="1.241" cy="1.241" r="1.241" transform="translate(153.987 31.042)" fill="red"/>
        <circle id="Ellipse_2" data-name="Ellipse 2" cx="1.241" cy="1.241" r="1.241" transform="translate(163.252 31.042)" fill="red"/>
        <path id="Path_8" data-name="Path 8" d="M167.3,29.443a9.076,9.076,0,0,1-12.681,0,8.6,8.6,0,0,1-2.582-6.336,8.937,8.937,0,1,1,17.875,0A8.62,8.62,0,0,1,167.3,29.443Zm-9.613-2.979a4.727,4.727,0,0,0,6.534,0,4.528,4.528,0,0,0,1.321-3.347,4.528,4.528,0,0,0-1.321-3.347,4.727,4.727,0,0,0-6.534,0,4.588,4.588,0,0,0-1.3,3.346,4.588,4.588,0,0,0,1.3,3.337Z" transform="translate(-1.062 -0.099)" fill="red"/>
        <line id="Line_1" data-name="Line 1" x2="2.224" transform="translate(160.779 43.832)" fill="none" stroke="#000" stroke-miterlimit="2.61" stroke-width="0.5"/>
        <line id="Line_2" data-name="Line 2" x2="68.668" transform="translate(164.809 43.832)" fill="none" stroke="#000" stroke-miterlimit="2.61" stroke-width="0.5"/>
        <path id="Path_9" data-name="Path 9" d="M80.89,46.564h2.88v-.536h-2.2V44.17h1.986v-.546H81.565V42h2.1v-.546H80.89Zm5.372,0h.7l1.827-5.1H88.08l-.834,2.522a19.369,19.369,0,0,0-.586,1.9h0c-.129-.6-.328-1.211-.546-1.907l-.794-2.522H84.6Zm3.515,0h2.89v-.536H90.453V44.17h1.986v-.546H90.453V42h2.1v-.546H89.788v5.114Zm4.161,0h.675V44.349h.616c.606,0,.884.3.993.993a7.945,7.945,0,0,0,.328,1.221h.7a7.875,7.875,0,0,1-.4-1.4,1.291,1.291,0,0,0-.745-.993h0a1.331,1.331,0,0,0,.993-1.291,1.311,1.311,0,0,0-.407-.993,2.105,2.105,0,0,0-1.48-.417,7,7,0,0,0-1.281.109v4.985Zm.675-2.711V42a2.691,2.691,0,0,1,.655-.06c.685,0,1.162.3,1.162.993s-.437.993-1.142.993Zm4.906,2.711h.675V44.389l1.658-2.929h-.745l-.735,1.41c-.189.387-.377.715-.506,1.053h0c-.159-.357-.308-.665-.506-1.053l-.715-1.41h-.765l1.609,2.979v2.125Zm6.077,0h.675V42h1.539V41.43h-3.783V42h1.549v4.568Zm3.227,0h.665V44.349h.626c.6,0,.874.3.993.993a6.554,6.554,0,0,0,.338,1.221h.685a7.308,7.308,0,0,1-.387-1.4,1.3,1.3,0,0,0-.755-.993h0a1.331,1.331,0,0,0,.993-1.291,1.281,1.281,0,0,0-.407-.993,2.1,2.1,0,0,0-1.48-.417,6.812,6.812,0,0,0-1.271.109v4.985Zm.665-2.711V42a2.75,2.75,0,0,1,.655-.06c.685,0,1.172.3,1.172.993s-.447.993-1.152.993Zm3.853,2.711h.665v-5.1h-.665Zm2.244,0h.675V44.577a2.731,2.731,0,0,0,.546,0,2.085,2.085,0,0,0,1.549-.556,1.529,1.529,0,0,0,.4-1.1,1.44,1.44,0,0,0-.447-1.082,2.145,2.145,0,0,0-1.44-.417,8.282,8.282,0,0,0-1.281.1v5.045Zm.675-2.552V42a3.556,3.556,0,0,1,.616-.05c.735,0,1.211.338,1.211.993s-.487,1.092-1.291,1.092a2.5,2.5,0,0,1-.536,0Zm5.819,2.552h.626v-5.1h-.665Zm1.986-.248a2.671,2.671,0,0,0,1.311.338c1.2,0,1.787-.7,1.787-1.48s-.437-1.152-1.3-1.5c-.705-.268-.993-.506-.993-.993s.268-.765.993-.765a2.066,2.066,0,0,1,.993.238l.179-.536a2.423,2.423,0,0,0-1.122-.238,1.48,1.48,0,0,0-1.668,1.38c0,.715.526,1.152,1.36,1.44s.993.536.993.993-.4.864-1.072.864a2.294,2.294,0,0,1-1.182-.328Zm6.187,0a2.741,2.741,0,0,0,1.321.338c1.2,0,1.778-.7,1.778-1.48s-.437-1.152-1.3-1.5c-.705-.268-.993-.506-.993-.993s.268-.765.993-.765a2.066,2.066,0,0,1,.993.238l.169-.536a2.423,2.423,0,0,0-1.122-.238,1.47,1.47,0,0,0-1.658,1.38c0,.715.526,1.152,1.36,1.44.685.268.993.536.993.993s-.4.864-1.072.864a2.264,2.264,0,0,1-1.182-.328Zm4.429.248h.675V44.577a2.731,2.731,0,0,0,.546,0,2.075,2.075,0,0,0,1.549-.556,1.529,1.529,0,0,0,.4-1.1,1.44,1.44,0,0,0-.447-1.082,2.145,2.145,0,0,0-1.44-.417,8.282,8.282,0,0,0-1.281.1Zm.675-2.552V42a3.556,3.556,0,0,1,.616-.05c.735,0,1.211.338,1.211.993s-.477,1.092-1.291,1.092a2.5,2.5,0,0,1-.536,0Zm3.8,2.552h2.88v-.536h-2.214V44.17h1.986v-.546h-1.986V42h2.1v-.546h-2.761Zm3.873-2.5a2.393,2.393,0,0,0,2.512,2.592,3.356,3.356,0,0,0,1.36-.248l-.139-.526a2.642,2.642,0,0,1-1.072.209,1.857,1.857,0,0,1-1.986-2.056,1.9,1.9,0,0,1,1.986-2.105,2.344,2.344,0,0,1,.993.218l.159-.536a2.8,2.8,0,0,0-1.221-.218,2.532,2.532,0,0,0-2.661,2.671Zm5.124,2.5h.665v-5.1h-.665Zm1.877,0h.685l.526-1.6h1.807l.546,1.6h.705l-1.738-5.1h-.794l-1.738,5.1Zm1.351-2.115.5-1.48c.1-.308.179-.616.248-.924h0c.079.3.159.6.268.933l.506,1.47Zm4.091,2.115h2.85v-.546h-2.185V41.459h-.665Z" transform="translate(-0.566 -0.288)"/>
      </g>
      <circle id="Ellipse_3" data-name="Ellipse 3" cx="5.5" cy="5.5" r="5.5" transform="translate(462 261)" fill="#fff"/>
    </g>
  </g>
</svg>
