<?xml version="1.0" standalone="no"?>
<!DOCTYPE svg PUBLIC "-//W3C//DTD SVG 20010904//EN"
 "http://www.w3.org/TR/2001/REC-SVG-20010904/DTD/svg10.dtd">
<svg version="1.0" xmlns="http://www.w3.org/2000/svg"
 width="136.000000pt" height="136.000000pt" viewBox="0 0 136.000000 136.000000"
 preserveAspectRatio="xMidYMid meet">
<metadata>
Created by potrace 1.14, written by Peter Selinger 2001-2017
</metadata>
<g transform="translate(0.000000,136.000000) scale(0.100000,-0.100000)"
fill="#000000" stroke="none">
<path d="M460 1352 c-28 -13 -55 -37 -74 -66 -16 -25 -18 -52 -18 -228 l0
-200 -49 -64 c-104 -138 -117 -329 -33 -483 35 -65 109 -140 172 -174 102 -55
252 -68 365 -29 54 18 57 18 41 1 -36 -40 -21 -87 32 -103 30 -9 67 23 67 59
0 32 -37 69 -60 61 -25 -10 -13 13 15 28 41 21 117 103 147 158 87 160 68 360
-48 500 l-39 48 -1 204 c-2 190 -4 207 -23 233 -42 57 -69 63 -284 62 -107 0
-202 -3 -210 -7z m426 -86 c23 -26 24 -33 24 -190 l0 -164 -62 26 c-95 38
-220 42 -313 10 -38 -14 -77 -28 -85 -32 -14 -6 -16 13 -15 153 1 172 8 204
53 219 13 4 103 7 199 7 l176 -1 23 -28z m-151 -517 c127 -34 193 -163 154
-302 -23 -84 -117 -150 -214 -150 -97 1 -191 66 -214 150 -54 191 92 351 274
302z"/>
<path d="M420 123 c-22 -9 -39 -35 -40 -59 -1 -54 66 -79 106 -39 21 21 22 27
13 55 -7 18 -22 35 -36 41 -13 5 -25 9 -26 8 -1 0 -9 -3 -17 -6z"/>
</g>
</svg>
